<svg width="193" height="62" viewBox="0 0 193 62" fill="none" xmlns="http://www.w3.org/2000/svg">
<path d="M15.2755 34.7545H14.9171V31.2442C16.7027 30.1304 21.0043 29.4405 23.1033 29.2512L23.9442 29.1723V28.4125L23.1033 28.3336C21.0088 28.1374 16.7027 27.4543 14.9171 26.3406V22.8303H15.2755C15.5069 22.8303 15.7289 22.7383 15.8925 22.5747C16.0561 22.4111 16.148 22.1892 16.148 21.9578V21.2814C16.1457 21.1295 16.084 20.9845 15.9761 20.8775C15.8683 20.7705 15.7228 20.7099 15.5709 20.7087H8.20307C8.0488 20.7087 7.90085 20.77 7.79177 20.8791C7.68268 20.9882 7.6214 21.1361 7.6214 21.2904V21.9668C7.6214 22.1982 7.71332 22.4201 7.87695 22.5837C8.04057 22.7474 8.2625 22.8393 8.4939 22.8393H8.85237V34.7545H8.4939C8.2625 34.7545 8.04057 34.8464 7.87695 35.01C7.71332 35.1737 7.6214 35.3956 7.6214 35.627V36.3033C7.6214 36.3796 7.63646 36.4552 7.66572 36.5256C7.69498 36.596 7.73786 36.66 7.7919 36.7138C7.84594 36.7677 7.91008 36.8103 7.98064 36.8393C8.0512 36.8683 8.12679 36.8831 8.20307 36.8828H15.5709C15.6472 36.8831 15.7227 36.8683 15.7933 36.8393C15.8639 36.8103 15.928 36.7677 15.982 36.7138C16.0361 36.66 16.079 36.596 16.1082 36.5256C16.1375 36.4552 16.1525 36.3796 16.1525 36.3033V35.627C16.1526 35.512 16.1298 35.3982 16.0857 35.292C16.0416 35.1859 15.9769 35.0895 15.8954 35.0084C15.8139 34.9274 15.7172 34.8632 15.6108 34.8196C15.5044 34.776 15.3905 34.7539 15.2755 34.7545Z" fill="#B89C67"/>
<path d="M90.6143 17.3517H84.0491V17.1104L85.9609 16.9661V0.780846L84.0491 0.636556V0.393066H97.0329V4.94948H96.7917L95.0963 0.733503H88.5581V8.62437H92.3908L93.4572 5.46802H93.6985V12.1302H93.4572L92.3908 8.95804H88.5581V17.0248H90.6188L90.6143 17.3517Z" fill="#021D5D"/>
<path d="M102.317 16.9661L104.231 17.1104V17.3517H97.8103V17.1104L99.7244 16.9661V0.780846L97.8103 0.636556V0.393066H104.231V0.636556L102.317 0.780846V16.9661Z" fill="#021D5D"/>
<path d="M105.344 17.3517V17.1104L107.258 16.9661V0.780846L105.344 0.636556V0.393066H111.763V0.636556L109.851 0.780846V16.9661H115.979L117.749 12.7006H117.99V17.3517H105.344Z" fill="#021D5D"/>
<path d="M122.982 16.9661L124.896 17.1104V17.3517H118.475V17.1104L120.389 16.9661V0.780846L118.475 0.636556V0.393066H124.896V0.636556L122.982 0.780846V16.9661Z" fill="#021D5D"/>
<path d="M130.515 9.69732V17.0381H132.598V17.3515H126.008V17.1102L127.923 16.9659V0.780639L126.008 0.636349V0.392859H133.834C134.509 0.388385 135.181 0.478696 135.831 0.661149C136.424 0.824458 136.98 1.09999 137.468 1.47278C137.933 1.83435 138.31 2.2969 138.571 2.8255C138.848 3.42065 138.985 4.07181 138.97 4.72833C138.992 5.42653 138.825 6.11777 138.485 6.7281C138.154 7.27731 137.708 7.74809 137.177 8.10787C136.594 8.50796 135.958 8.82583 135.288 9.05252C134.579 9.293 133.836 9.51094 133.061 9.70633L130.515 9.69732ZM130.515 9.35688H132.429C132.955 9.36258 133.475 9.25251 133.953 9.03448C134.413 8.82807 134.819 8.51965 135.142 8.13267C135.477 7.71715 135.736 7.24539 135.906 6.73937C136.097 6.17762 136.193 5.58781 136.19 4.99436C136.192 4.43993 136.127 3.88727 135.996 3.34855C135.88 2.8591 135.676 2.39517 135.392 1.98005C135.12 1.59061 134.758 1.27269 134.337 1.05344C133.851 0.816986 133.315 0.701727 132.774 0.717512H130.52L130.515 9.35688Z" fill="#021D5D"/>
<path d="M143.694 9.69732V17.0381H145.777V17.3515H139.187V17.1102L141.101 16.9659V0.780639L139.187 0.636349V0.392859H147.013C147.689 0.388382 148.362 0.478692 149.013 0.661149C149.604 0.824463 150.159 1.10001 150.647 1.47278C151.114 1.83292 151.491 2.29582 151.75 2.8255C152.027 3.42065 152.164 4.07181 152.149 4.72833C152.172 5.42633 152.005 6.11755 151.666 6.7281C151.334 7.27737 150.888 7.74812 150.356 8.10787C149.772 8.50419 149.137 8.81826 148.467 9.04125C147.756 9.28173 147.013 9.49967 146.239 9.69506L143.694 9.69732ZM143.694 9.35688H145.608C146.134 9.36255 146.655 9.25248 147.134 9.03448C147.594 8.82746 148 8.51914 148.323 8.13267C148.658 7.71757 148.916 7.24566 149.085 6.73937C149.274 6.17808 149.369 5.58905 149.364 4.99661C149.367 4.44218 149.301 3.88953 149.17 3.35081C149.054 2.86122 148.848 2.39728 148.564 1.98231C148.292 1.59343 147.931 1.27561 147.511 1.05569C147.025 0.81924 146.489 0.70398 145.949 0.719765H143.694V9.35688Z" fill="#021D5D"/>
<path d="M161.216 17.7394C160.092 17.7545 158.978 17.5317 157.947 17.0856C156.986 16.6671 156.12 16.0572 155.402 15.2932C154.678 14.5104 154.118 13.5905 153.756 12.5878C153.361 11.5045 153.164 10.359 153.174 9.20597C153.174 6.62228 153.872 4.55487 155.269 3.00375C156.665 1.45263 158.809 0.451623 161.701 0.000716907C162.825 -0.0143576 163.94 0.208451 164.972 0.65453C165.933 1.07253 166.798 1.68245 167.515 2.44688C168.241 3.23071 168.805 4.1501 169.175 5.15232C169.578 6.23359 169.78 7.37991 169.77 8.53412C169.77 11.1178 169.071 13.1852 167.673 14.7363C166.275 16.2875 164.123 17.2885 161.216 17.7394ZM161.967 17.2073C162.7 17.2208 163.419 17.0091 164.027 16.6008C164.654 16.1642 165.172 15.5886 165.54 14.919C165.978 14.1314 166.293 13.2813 166.474 12.3984C166.69 11.3749 166.796 10.331 166.789 9.28488C166.799 8.10801 166.652 6.93505 166.352 5.79712C166.097 4.81386 165.689 3.87714 165.141 3.02179C164.67 2.28325 164.041 1.65869 163.299 1.19336C162.601 0.761408 161.796 0.534818 160.975 0.53955C160.243 0.526781 159.524 0.73842 158.916 1.14602C158.29 1.57971 157.772 2.15123 157.401 2.81663C156.962 3.60005 156.644 4.44524 156.457 5.32367C156.232 6.34607 156.122 7.3904 156.13 8.43718C156.12 9.61837 156.266 10.7957 156.565 11.9385C156.819 12.9278 157.232 13.869 157.789 14.7251C158.268 15.4611 158.9 16.0848 159.642 16.5535C160.338 16.9842 161.141 17.2108 161.96 17.2073H161.967Z" fill="#021D5D"/>
<path d="M85.3828 41.0672V40.8417L87.2968 40.6929V24.4986L85.3828 24.3521V24.1109H93.2736C93.962 24.0986 94.6477 24.2007 95.3027 24.413C95.8373 24.589 96.3316 24.8694 96.7569 25.2381C97.1336 25.5713 97.4349 25.9809 97.6406 26.4398C97.8411 26.8817 97.9449 27.3613 97.945 27.8466C97.9531 28.444 97.8071 29.0333 97.5211 29.5578C97.2378 30.0693 96.8544 30.5186 96.3939 30.879C95.8974 31.2608 95.3403 31.5565 94.7458 31.7537C94.1092 31.9661 93.442 32.0727 92.7708 32.0694C93.6906 32.0599 94.6074 32.1744 95.4966 32.4098C96.1776 32.5885 96.8187 32.8945 97.3859 33.3116C97.8529 33.6603 98.2307 34.1145 98.4884 34.6373C98.7311 35.1365 98.8553 35.6851 98.8513 36.2402C98.8646 36.9501 98.7101 37.653 98.4004 38.2919C98.0988 38.8861 97.6626 39.4018 97.1266 39.7979C96.5291 40.2342 95.8555 40.5554 95.1404 40.7448C94.2972 40.9701 93.4271 41.0786 92.5544 41.0672H85.3828ZM92.1892 31.9341C92.6526 31.9433 93.1109 31.8355 93.5216 31.6207C93.9064 31.4156 94.2383 31.1239 94.4911 30.7685C94.7622 30.3844 94.9594 29.9532 95.0727 29.4969C95.2058 28.9762 95.2709 28.4404 95.2666 27.903C95.2666 26.8629 95.0081 26.0227 94.4911 25.3824C93.974 24.7421 93.2315 24.4227 92.2636 24.4242H89.8873V31.9363L92.1892 31.9341ZM92.0201 40.7516C92.6793 40.7712 93.3352 40.6521 93.9455 40.4021C94.4424 40.192 94.8827 39.8676 95.2305 39.4552C95.5673 39.0432 95.8111 38.5633 95.9452 38.0484C96.0958 37.4889 96.1716 36.912 96.1707 36.3327C96.1832 35.7295 96.0799 35.1294 95.8663 34.5651C95.6841 34.091 95.408 33.6585 95.0547 33.2936C94.715 32.9484 94.3009 32.6855 93.844 32.5248C93.362 32.3538 92.8539 32.2684 92.3425 32.2723H89.8873V40.7516H92.0201Z" fill="#021D5D"/>
<path d="M113.12 40.7064L114.818 40.8507V41.0919H108.234V40.8665L110.264 40.6974L108.374 34.9551H102.373L100.344 40.7064L102.404 40.8755V41.1009H98.1725V40.8417L99.9175 40.6974L105.61 24.6902L107.427 23.8199L113.12 40.7064ZM102.51 34.6011H108.25L105.491 26.097L102.51 34.6011Z" fill="#021D5D"/>
<path d="M119.878 33.0501V40.7155L121.682 40.8598V41.101H115.373V40.8418L117.288 40.6975V24.5212L115.373 24.3769V24.1334H123.174C123.794 24.1353 124.412 24.211 125.014 24.3589C125.588 24.494 126.131 24.7365 126.615 25.0736C127.086 25.4103 127.476 25.8497 127.753 26.3586C128.062 26.9611 128.211 27.6323 128.188 28.3088C128.206 28.9861 128.029 29.6543 127.679 30.2342C127.326 30.79 126.855 31.2611 126.299 31.614C125.665 32.0151 124.975 32.3191 124.252 32.5158C123.431 32.7507 122.592 32.9211 121.745 33.0253L124.87 33.7017L129.2 40.7065L130.364 40.8508V41.092H126.443L121.623 33.0501H119.878ZM119.878 32.7097H121.21C122.583 32.7097 123.62 32.3256 124.324 31.5576C125.027 30.7896 125.379 29.781 125.379 28.532C125.389 27.9408 125.298 27.3522 125.111 26.7915C124.955 26.3255 124.713 25.8933 124.396 25.5177C124.104 25.1786 123.741 24.9084 123.332 24.7264C122.906 24.5382 122.445 24.4436 121.979 24.4491H119.871L119.878 32.7097Z" fill="#021D5D"/>
<path d="M130.926 41.0671V40.8417L132.84 40.6929V24.4986L130.926 24.352V24.1108H138.817C139.506 24.0989 140.191 24.201 140.846 24.4129C141.381 24.5889 141.875 24.8694 142.3 25.2381C142.676 25.5718 142.978 25.9813 143.184 26.4397C143.383 26.8821 143.486 27.3616 143.486 27.8466C143.494 28.4439 143.348 29.0332 143.062 29.5577C142.78 30.0698 142.396 30.5192 141.935 30.8789C141.44 31.2608 140.883 31.5565 140.289 31.7537C139.653 31.966 138.986 32.0727 138.314 32.0693C139.234 32.0602 140.151 32.1747 141.04 32.4097C141.721 32.5889 142.362 32.8949 142.929 33.3115C143.395 33.6615 143.773 34.1154 144.032 34.6372C144.273 35.1369 144.398 35.6852 144.395 36.2402C144.409 36.9501 144.255 37.6534 143.944 38.2918C143.642 38.8853 143.207 39.4008 142.672 39.7978C142.075 40.2337 141.401 40.5548 140.686 40.7447C139.841 40.9729 138.969 41.0837 138.093 41.0739L130.926 41.0671ZM137.735 31.934C138.198 31.9432 138.657 31.8354 139.067 31.6206C139.452 31.4155 139.784 31.1238 140.037 30.7684C140.306 30.3833 140.503 29.9525 140.619 29.4969C140.751 28.976 140.815 28.4403 140.81 27.9029C140.81 26.8628 140.552 26.0226 140.037 25.3823C139.521 24.7421 138.778 24.4227 137.807 24.4242H135.433V31.9363L137.735 31.934ZM137.566 40.7515C138.225 40.7709 138.881 40.6519 139.491 40.402C139.988 40.1926 140.428 39.868 140.774 39.4551C141.112 39.0437 141.356 38.5636 141.489 38.0483C141.64 37.4891 141.716 36.912 141.714 36.3326C141.726 35.7296 141.624 35.1298 141.412 34.5651C141.228 34.0918 140.952 33.6596 140.601 33.2935C140.26 32.9493 139.846 32.6865 139.39 32.5247C138.907 32.3536 138.398 32.2681 137.886 32.2722H135.433V40.7515H137.566Z" fill="#021D5D"/>
<path d="M158.665 40.7066L160.36 40.8509V41.0921H153.775V40.8667L155.804 40.6976L153.915 34.9553H147.913L145.902 40.6976L147.961 40.8667V41.0921H143.722V40.8419L145.467 40.6976L151.16 24.6904L152.977 23.8202L158.665 40.7066ZM148.053 34.6013H153.795L151.033 26.0972L148.053 34.6013ZM152.075 22.4877L148.901 19.2412H151.252L152.366 22.4877H152.075Z" fill="#021D5D"/>
<path d="M165.426 33.05V40.7154L167.23 40.8597V41.1009H160.919V40.8416L162.834 40.6974V24.5211L160.919 24.3768V24.1333H168.72C169.341 24.135 169.959 24.2107 170.562 24.3588C171.135 24.4938 171.678 24.7364 172.161 25.0734C172.633 25.4094 173.023 25.8489 173.299 26.3585C173.608 26.9608 173.759 27.632 173.737 28.3087C173.753 28.9859 173.577 29.6538 173.227 30.2341C172.873 30.7892 172.402 31.2601 171.847 31.6138C171.213 32.0154 170.522 32.3194 169.798 32.5157C168.977 32.7508 168.139 32.9212 167.291 33.0252L170.416 33.7015L174.744 40.7064L175.908 40.8507V41.0919H171.992L167.171 33.05H165.426ZM165.426 32.7095H166.759C168.131 32.7095 169.169 32.3255 169.872 31.5575C170.576 30.7894 170.927 29.7809 170.925 28.5319C170.936 27.9408 170.846 27.3523 170.659 26.7914C170.503 26.3258 170.26 25.8937 169.944 25.5176C169.652 25.1784 169.287 24.9082 168.878 24.7262C168.452 24.5377 167.991 24.4432 167.525 24.4489H165.417L165.426 32.7095Z" fill="#021D5D"/>
<path d="M190.862 40.7064L192.553 40.8417V41.0829H185.967V40.8575L187.996 40.6884L186.107 34.9461H180.106L178.095 40.6884L180.153 40.8575V41.0829H175.914V40.8417L177.657 40.6974L183.352 24.6902L185.169 23.8199L190.862 40.7064ZM180.25 34.6011H185.992L183.23 26.097L180.25 34.6011Z" fill="#021D5D"/>
<path d="M87.1739 58.0368L86.2292 60.7558L87.494 60.9452L87.4196 61.4322H84.1212L84.0491 60.9452L85.1763 60.7851L88.7836 51.3657L89.6561 51.1177L93.4505 60.7851L94.5777 60.9452L94.5056 61.4322H90.5895L90.5173 60.9452L91.7528 60.7558L90.7631 58.0368H87.1739ZM89.106 53.5278L89.0045 52.7432L87.4061 57.365H90.5015L89.106 53.5278Z" fill="#021D5D"/>
<path d="M99.4991 61.6488L95.6483 51.9092L94.5211 51.7491L94.5932 51.2644H98.5612L98.6333 51.7491L97.3978 51.9385L100.015 59.047L100.087 59.8046L102.951 51.9385L101.686 51.7491L101.758 51.2644H105.009L105.081 51.7491L103.954 51.9092L100.27 61.3579L99.4991 61.6488Z" fill="#021D5D"/>
<path d="M111.811 61.6488L107.96 51.9092L106.833 51.7491L106.905 51.2644H110.873L110.945 51.7491L109.709 51.9385L112.327 59.047L112.399 59.8046L115.262 51.9385L113.998 51.7491L114.07 51.2644H117.328L117.4 51.7491L116.272 51.9092L112.582 61.3579L111.811 61.6488Z" fill="#021D5D"/>
<path d="M123.934 51.0005C124.625 50.992 125.311 51.1264 125.948 51.395C126.54 51.6447 127.074 52.0138 127.516 52.4793C127.959 52.9449 128.301 53.4968 128.52 54.1005C128.764 54.7528 128.885 55.4445 128.879 56.1408C128.879 57.7506 128.454 59.0056 127.605 59.9059C126.756 60.8062 125.435 61.4074 123.643 61.7095C122.953 61.7183 122.268 61.5872 121.63 61.324C121.041 61.0772 120.509 60.711 120.068 60.2486C119.627 59.7782 119.283 59.2249 119.058 58.6208C118.816 57.9673 118.695 57.2751 118.702 56.5782C118.702 54.9685 119.125 53.7135 119.973 52.8131C120.821 51.9128 122.141 51.3086 123.934 51.0005ZM120.374 56.089C120.376 56.6492 120.442 57.2075 120.571 57.7528C120.692 58.2999 120.903 58.8231 121.195 59.3017C121.48 59.7638 121.865 60.156 122.322 60.4492C122.831 60.7636 123.421 60.9205 124.018 60.9002C124.521 60.9147 125.019 60.7973 125.463 60.5597C125.863 60.3339 126.204 60.0173 126.459 59.6354C126.733 59.2238 126.927 58.7651 127.032 58.2826C127.157 57.7369 127.218 57.1786 127.215 56.6188C127.212 56.0642 127.149 55.5115 127.025 54.9707C126.907 54.421 126.698 53.8946 126.408 53.4129C126.124 52.9479 125.738 52.5533 125.28 52.2585C124.772 51.9455 124.184 51.7887 123.587 51.8076C123.084 51.794 122.586 51.9089 122.14 52.1413C121.739 52.3634 121.398 52.678 121.143 53.0589C120.869 53.4755 120.673 53.9384 120.564 54.4251C120.435 54.9703 120.372 55.5288 120.374 56.089Z" fill="#021D5D"/>
<path d="M140.783 58.472L140.404 60.5665C140.21 60.6634 139.973 60.7671 139.691 60.8799C139.41 60.9926 139.112 61.1053 138.79 61.2068C138.467 61.3082 138.149 61.4119 137.816 61.5044C137.503 61.5923 137.184 61.6579 136.862 61.7005C136.193 61.7016 135.529 61.5857 134.901 61.3578C134.283 61.1372 133.715 60.7961 133.23 60.3545C132.732 59.8967 132.336 59.34 132.067 58.72C131.764 58.0132 131.615 57.2501 131.629 56.4813C131.614 55.7209 131.75 54.9652 132.031 54.2583C132.282 53.6396 132.667 53.0838 133.158 52.6305C133.666 52.1696 134.255 51.8072 134.896 51.5619C135.614 51.2843 136.364 51.0958 137.128 51.0005C137.494 51.0001 137.859 51.0394 138.217 51.1177C138.548 51.189 138.874 51.2839 139.191 51.4018C139.471 51.5032 139.743 51.6245 140.005 51.7648C140.212 51.8738 140.411 51.9973 140.6 52.1345V54.0982H139.802L139.337 52.7455C139.224 52.6235 139.099 52.5118 138.965 52.4118C138.804 52.287 138.629 52.1797 138.445 52.0917C138.227 51.9905 138.001 51.9105 137.768 51.8527C137.497 51.7874 137.218 51.7556 136.939 51.758C136.433 51.7507 135.931 51.8474 135.464 52.0421C135.025 52.2287 134.634 52.5141 134.323 52.8763C133.985 53.2785 133.733 53.7458 133.582 54.2493C133.399 54.8597 133.311 55.4946 133.32 56.1318C133.32 56.721 133.408 57.307 133.582 57.8701C133.747 58.4201 134.008 58.9368 134.353 59.3964C134.688 59.8438 135.113 60.2157 135.602 60.4876C136.123 60.7694 136.709 60.9115 137.302 60.9001C137.506 60.9011 137.709 60.8745 137.906 60.8212C138.086 60.7705 138.261 60.7025 138.429 60.6183C138.58 60.5403 138.727 60.4522 138.866 60.3545C138.986 60.2728 139.099 60.1831 139.207 60.0863L139.991 58.472H140.783Z" fill="#021D5D"/>
<path d="M145.724 58.0368L144.779 60.7558L146.044 60.9452L145.97 61.4322H142.671L142.599 60.9452L143.727 60.7851L147.334 51.3657L148.204 51.1177L151.998 60.7851L153.126 60.9452L153.054 61.4322H149.14L149.067 60.9452L150.303 60.7558L149.313 58.0368H145.724ZM147.656 53.5278L147.555 52.7432L145.956 57.365H149.052L147.656 53.5278Z" fill="#021D5D"/>
<path d="M160.406 61.4323H155.608L155.536 60.9454L157.281 60.756V51.9633H155.101L154.424 53.8233H153.865V51.2644H162.223V53.821H161.666L160.99 51.9611H158.81V60.7537L160.48 60.9431L160.406 61.4323Z" fill="#021D5D"/>
<path d="M169.346 51.0005C170.037 50.9922 170.722 51.1265 171.359 51.395C171.951 51.6447 172.485 52.0138 172.928 52.4793C173.37 52.9449 173.712 53.4968 173.932 54.1005C174.175 54.7529 174.296 55.4446 174.288 56.1408C174.288 57.7506 173.864 59.0056 173.016 59.9059C172.169 60.8062 170.848 61.4074 169.055 61.7095C168.365 61.7185 167.68 61.5873 167.042 61.324C166.452 61.0783 165.92 60.712 165.479 60.2486C165.038 59.7787 164.694 59.2253 164.469 58.6208C164.227 57.9673 164.107 57.2751 164.113 56.5782C164.113 54.9685 164.537 53.7134 165.385 52.8131C166.233 51.9128 167.553 51.3086 169.346 51.0005ZM165.784 56.089C165.786 56.6494 165.852 57.2077 165.982 57.7528C166.104 58.2998 166.315 58.8231 166.607 59.3017C166.891 59.7642 167.277 60.1564 167.734 60.4492C168.241 60.7635 168.831 60.9204 169.427 60.9001C169.931 60.9144 170.43 60.7971 170.875 60.5597C171.274 60.3336 171.614 60.017 171.869 59.6353C172.143 59.2239 172.338 58.7653 172.444 58.2826C172.569 57.7369 172.63 57.1786 172.626 56.6188C172.624 56.0641 172.56 55.5115 172.437 54.9707C172.318 54.4209 172.11 53.8946 171.819 53.4128C171.536 52.9474 171.151 52.5526 170.692 52.2585C170.184 51.945 169.595 51.7882 168.999 51.8076C168.497 51.7943 167.999 51.9091 167.554 52.1413C167.153 52.3628 166.811 52.6775 166.557 53.0589C166.283 53.4758 166.086 53.9386 165.975 54.4251C165.846 54.9702 165.782 55.5287 165.784 56.089Z" fill="#021D5D"/>
<path d="M68.389 39.1553C67.5967 37.2959 66.4124 35.6295 64.917 34.2698C63.3449 32.8043 61.2316 31.5936 58.5773 30.6377C55.9229 29.6818 52.8019 29.0603 49.2142 28.7732C54.9723 28.1976 59.1725 26.6607 61.8148 24.1627C64.4571 21.6647 65.779 18.5068 65.7805 14.6892C65.8085 12.7473 65.3848 10.8254 64.5428 9.07537C63.7847 7.48294 62.6782 6.08136 61.3053 4.97438C59.8697 3.85769 58.2735 2.96456 56.5707 2.3253C54.7922 1.62906 52.9431 1.12861 51.0562 0.832799C49.1466 0.537257 47.2168 0.39252 45.2845 0.399929H0V23.8606H0.856723C0.856723 23.6757 0.856726 23.4097 0.877017 23.0738C0.897307 22.7378 0.973959 22.048 1.13178 21.0131C1.28593 19.9888 1.49515 18.9736 1.75854 17.9718C2.09483 16.7665 2.51443 15.586 3.01431 14.4389C3.57246 13.1165 4.25172 11.8486 5.04339 10.6513C5.92455 9.35952 6.94441 8.16805 8.08475 7.09815C9.34719 5.89208 10.7669 4.8622 12.3052 4.03649C14.0933 3.11522 15.9931 2.4294 17.9574 1.99614C20.3327 1.45505 22.7628 1.19176 25.1989 1.21156V60.614H21.2287V61.4324H46.0083C47.6706 61.4306 49.3313 61.3305 50.9818 61.1325C52.74 60.9166 54.4836 60.5951 56.2033 60.1698C57.9669 59.7519 59.6685 59.1054 61.2647 58.2467C62.7856 57.4283 64.1968 56.4208 65.4649 55.2482C66.7592 54.0301 67.7711 52.5434 68.4296 50.8924C69.8833 47.1125 69.8688 42.9252 68.389 39.1553ZM52.4382 47.1544C52.4156 47.6459 52.3863 48.1374 52.3548 48.6289C52.1586 51.7311 51.7528 55.0521 49.7012 57.39C48.5824 58.6074 47.148 59.4908 45.5573 59.9421C44.0761 60.393 41.9952 60.7199 40.4621 60.5373V1.21156C44.5338 1.21156 47.122 2.30952 48.6664 4.50769C49.9424 6.32484 50.5782 8.44185 50.8284 10.6333C51.1543 13.631 51.1452 16.6557 50.8014 19.6514C50.5218 22.0434 49.6944 24.4874 47.9066 26.1016C46.006 27.8173 44.0739 28.3945 41.8058 28.3945C41.8058 28.4666 41.8193 29.1858 41.8058 29.1858C45.3725 29.1858 47.9359 29.9771 50.0236 32.7435C51.4079 34.5786 51.967 36.9053 52.2443 39.1869C52.5357 41.8324 52.6006 44.4979 52.4382 47.1544Z" fill="#B89C67"/>
</svg>
