<svg width="93" height="66" viewBox="0 0 93 66" fill="none" xmlns="http://www.w3.org/2000/svg">
<g opacity="0.4">
<path d="M1.375 31.0284V65H25.9075V42.2512H42.4835V65H67.016V31.0284L34.1955 1L1.375 31.0284Z" stroke="#B89C67" stroke-linecap="round" stroke-linejoin="round"/>
<path d="M85.9849 39.2039V13.7468L82.9763 9.87061L76.9592 16.7223L80.1363 20.3591L78.6922 22.0121V25.6489L80.1363 27.3019L76.9592 30.9386L79.8474 34.2448L78.6922 35.5672V39.2039" stroke="#B89C67" stroke-linecap="round" stroke-linejoin="round"/>
<path d="M86.0703 39.2053C89.5758 40.4143 91.6245 43.4868 91.6245 47.3214C91.6245 52.1854 87.5836 56.1284 82.5989 56.1284C77.6142 56.1284 73.5732 52.1854 73.5732 47.3214C73.5732 43.6723 75.409 40.5415 78.6502 39.2053" stroke="#B89C67" stroke-linecap="round" stroke-linejoin="round"/>
<path d="M85.4861 47.1032C85.4861 48.6963 84.1946 49.9878 82.6015 49.9878C81.0083 49.9878 79.7169 48.6963 79.7169 47.1032C79.7169 45.51 81.0083 44.2185 82.6015 44.2185C84.1946 44.2185 85.4861 45.51 85.4861 47.1032Z" stroke="#B89C67"/>
</g>
</svg>
